<?xml version="1.0" encoding="iso-8859-1"?>
<!-- Generator: Adobe Illustrator 19.0.0, SVG Export Plug-In . SVG Version: 6.00 Build 0)  -->
<svg version="1.1" id="Capa_1" xmlns="http://www.w3.org/2000/svg" xmlns:xlink="http://www.w3.org/1999/xlink" x="0px" y="0px"
	 viewBox="0 0 512.001 512.001" style="enable-background:new 0 0 512.001 512.001;" xml:space="preserve">
<path style="fill:#CCBD7D;" d="M472.09,35.31h-13.886c-21.848,0-42.558,9.702-56.549,26.483
	c-13.992,16.781-34.701,26.483-56.541,26.483h-178.22c-21.848,0-42.558-9.702-56.55-26.483s-34.7-26.483-56.54-26.483H39.918
	C17.867,35.31,0,53.177,0,75.229v286.702v26.483v39.724v4.414C0,454.4,16.825,476.69,44.138,476.69
	c7.062,0,13.789-1.668,19.447-4.52s10.24-6.894,12.994-11.652c1.836-3.169,2.869-6.647,2.869-10.311c0-1.571,0-7.194,0-8.828
	v-52.966c33.916,33.916,79.907,52.966,127.868,52.966h97.368c47.96,0,93.952-19.05,127.868-52.966v52.966c0,1.633,0,7.256,0,8.828
	c0,3.663,1.033,7.141,2.869,10.311c4.599,7.918,14.257,13.868,25.521,15.634c2.251,0.353,4.564,0.539,6.921,0.539
	c27.313,0,44.138-22.29,44.138-44.138v-4.414v-39.724v-26.483V75.229C512,53.177,494.133,35.31,472.09,35.31z"/>
<path style="fill:#F7E6A1;" d="M472.082,35.31h-13.886c-21.848,0-42.558,9.702-56.541,26.483l0,0
	c-13.983,16.781-34.701,26.483-56.541,26.483h-178.22c-21.848,0-42.558-9.702-56.541-26.483l0,0
	C96.371,45.012,75.652,35.31,53.813,35.31H39.918C17.867,35.31,0,53.177,0,75.229v286.702v26.483v39.724v4.414
	C0,454.4,16.825,476.69,44.138,476.69c18.82,0,35.31-11.847,35.31-26.483c0-1.571,0-7.194,0-8.828v-52.966l0,0
	c33.916,33.916,79.907,52.966,127.868,52.966h97.368c47.96,0,93.952-19.05,127.868-52.966l0,0v52.966c0,1.633,0,7.256,0,8.828
	c0,14.636,16.49,26.483,35.31,26.483c27.313,0,44.138-22.29,44.138-44.138v-4.414v-39.724v-26.483V75.229
	C512,53.177,494.133,35.31,472.082,35.31z"/>
<g>
	<path style="fill:#CCBD7D;" d="M45.4,423.724c18.82,0,34.048,8.828,34.048,26.483c0,14.636-16.49,26.483-35.31,26.483
		C16.825,476.69,0,454.4,0,432.552s22.343-44.138,49.655-44.138h29.793"/>
	<path style="fill:#CCBD7D;" d="M466.6,423.724c-18.82,0-34.048,8.828-34.048,26.483c0,14.636,16.49,26.483,35.31,26.483
		c27.313,0,44.138-22.29,44.138-44.138s-22.343-44.138-49.655-44.138h-29.793"/>
	<path style="fill:#CCBD7D;" d="M79.448,353.103c-4.873,0-8.828-3.955-8.828-8.828v-35.31c0-4.873,3.955-8.828,8.828-8.828
		s8.828,3.955,8.828,8.828v35.31C88.276,349.149,84.321,353.103,79.448,353.103z"/>
	<path style="fill:#CCBD7D;" d="M432.552,361.931c-4.873,0-8.828-3.955-8.828-8.828V247.172c0-4.873,3.955-8.828,8.828-8.828
		s8.828,3.955,8.828,8.828v105.931C441.379,357.976,437.425,361.931,432.552,361.931z"/>
	<path style="fill:#CCBD7D;" d="M79.448,282.483c-4.873,0-8.828-3.955-8.828-8.828v-35.31c0-4.873,3.955-8.828,8.828-8.828
		s8.828,3.955,8.828,8.828v35.31C88.276,278.528,84.321,282.483,79.448,282.483z"/>
	<path style="fill:#CCBD7D;" d="M432.552,203.034c-4.873,0-8.828-3.955-8.828-8.828v-35.31c0-4.873,3.955-8.828,8.828-8.828
		s8.828,3.955,8.828,8.828v35.31C441.379,199.08,437.425,203.034,432.552,203.034z"/>
	<path style="fill:#CCBD7D;" d="M88.276,132.414c4.873,0,8.828-3.955,8.828-8.828v-74.09c-5.438-3.964-11.37-7.142-17.655-9.481
		v83.571C79.448,128.459,83.403,132.414,88.276,132.414z"/>
	<path style="fill:#CCBD7D;" d="M441.379,79.448V37.297c-6.171,1.448-12.085,3.752-17.655,6.709v35.443
		c0,4.873,3.955,8.828,8.828,8.828S441.379,84.321,441.379,79.448z"/>
</g>
<g>
</g>
<g>
</g>
<g>
</g>
<g>
</g>
<g>
</g>
<g>
</g>
<g>
</g>
<g>
</g>
<g>
</g>
<g>
</g>
<g>
</g>
<g>
</g>
<g>
</g>
<g>
</g>
<g>
</g>
</svg>
